#!OML:ASF H:\BabyWalks\Project 1\Capture day 1\Session 1\baby.ASF
:FULLY-SPECIFIED
:DEGREES
243
root -18.6135 17.1808 2.30667 4.70641 43.1044 -0.954216
lowerback 22.963 -2.22829 -9.05449
upperback 5.11147 -5.06759 -3.26927
thorax -6.64044 -2.2327 2.95795
lowerneck 1.47836 1.5687 1.78385
upperneck -20.4993 3.22205 3.6856
head -6.50488 1.25716 0.673548
rclavicle 6.52014e-014 -4.29375e-014
rhumerus -52.0466 12.7742 -91.3408
rradius 45.4869
rwrist -4.64145
rhand -11.0273 -15.6146
rfingers 7.12502
rthumb 14.9942 -45.0517
lclavicle 6.52014e-014 -4.29375e-014
lhumerus -20.532 -14.4937 68.4166
lradius 56.8587
lwrist 3.29164
lhand -9.0644 10.8536
lfingers 7.12502
lthumb 16.8844 40.1396
rfemur -29.5872 11.814 18.2423
rtibia 58.3894
rfoot -17.2391 15.0501
rtoes -13.8958
lfemur -18.5024 -1.62142 -13.9845
ltibia 40.3684
lfoot -30.1412 -12.7543
ltoes -1.04651
244
root -18.5447 17.2153 2.39543 4.80189 43.0665 -0.926127
lowerback 22.9517 -2.28384 -9.06063
upperback 5.04539 -5.14558 -3.23597
thorax -6.69569 -2.26664 3.01952
lowerneck 1.51598 1.76583 1.91537
upperneck -20.5629 3.47783 3.50255
head -6.53 1.38431 0.576852
rclavicle -7.95139e-015 -4.77083e-014
rhumerus -52.1804 12.7004 -91.3026
rradius 45.4494
rwrist -4.57497
rhand -11.0801 -15.6362
rfingers 7.12502
rthumb 14.9434 -45.0771
lclavicle -7.95139e-015 -4.77083e-014
lhumerus -20.019 -14.7318 68.127
lradius 57.8095
lwrist 3.82089
lhand -9.04877 10.8686
lfingers 7.12502
lthumb 16.8995 40.1533
rfemur -29.9841 12.1279 17.964
rtibia 56.4759
rfoot -17.5265 14.9115
rtoes -14.2942
lfemur -17.6893 -1.70345 -13.987
ltibia 39.4587
lfoot -30.016 -12.657
ltoes -1.20738
245
root -18.4758 17.2503 2.48616 4.91215 43.0256 -0.889778
lowerback 22.9409 -2.33413 -9.0638
upperback 4.97247 -5.21623 -3.19275
thorax -6.75878 -2.29658 3.08865
lowerneck 1.53297 1.97467 2.04647
upperneck -20.6247 3.74688 3.30654
head -6.54993 1.5194 0.475405
rclavicle 9.70069e-014 -2.8625e-014
rhumerus -52.3256 12.6458 -91.2628
rradius 45.427
rwrist -4.53893
rhand -11.05 -15.6257
rfingers 7.12502
rthumb 14.9723 -45.0645
lclavicle 9.70069e-014 -2.8625e-014
lhumerus -19.5703 -14.9692 67.8503
lradius 58.7958
lwrist 4.3254
lhand -8.95828 10.8277
lfingers 7.12502
lthumb 16.9866 40.1049
rfemur -30.3468 12.4608 17.6577
rtibia 54.4709
rfoot -17.7507 14.8508
rtoes -14.5882
lfemur -16.8566 -1.79659 -13.9926
ltibia 38.4956
lfoot -29.8572 -12.5521
ltoes -1.36836
246
root -18.4066 17.2859 2.57843 5.04537 42.9942 -0.838392
lowerback 22.9275 -2.38659 -9.05545
upperback 4.89223 -5.28712 -3.14333
thorax -6.82897 -2.32631 3.15837
lowerneck 1.5277 2.19906 2.1757
upperneck -20.6827 4.03536 3.10367
head -6.56381 1.66513 0.371163
rclavicle -1.82882e-014 -7.95139e-015
rhumerus -52.4792 12.6015 -91.219
rradius 45.4129
rwrist -4.53117
rhand -10.9458 -15.5761
rfingers 7.12502
rthumb 15.0727 -45.0073
lclavicle -1.82882e-014 -7.95139e-015
lhumerus -19.1852 -15.2064 67.5909
lradius 59.8058
lwrist 4.81933
lhand -8.81575 10.7443
lfingers 7.12502
lthumb 17.1238 40.0097
rfemur -30.6837 12.7777 17.3228
rtibia 52.4065
rfoot -17.9226 14.8026
rtoes -14.8143
lfemur -16.0187 -1.922 -14.0111
ltibia 37.4941
lfoot -29.6619 -12.4337
ltoes -1.515
247
root -18.3374 17.3218 2.67168 5.2067 42.9919 -0.773561
lowerback 22.9213 -2.44907 -9.03068
upperback 4.80034 -5.36844 -3.08361
thorax -6.91518 -2.36021 3.2339
lowerneck 1.51155 2.43272 2.31084
upperneck -20.7516 4.33387 2.88154
head -6.57772 1.81684 0.259298
rclavicle -7.55382e-014 1.74931e-014
rhumerus -52.6442 12.5773 -91.1699
rradius 45.4096
rwrist -4.56177
rhand -10.7766 -15.4992
rfingers 7.12502
rthumb 15.2357 -44.9182
lclavicle -7.55382e-014 1.74931e-014
lhumerus -18.8696 -15.4383 67.3531
lradius 60.8351
lwrist 5.29767
lhand -8.64304 10.6344
lfingers 7.12502
lthumb 17.29 39.8853
rfemur -31.0041 13.0414 16.9689
rtibia 50.3102
rfoot -18.0322 14.7072
rtoes -14.9345
lfemur -15.1927 -2.09579 -14.0422
ltibia 36.4591
lfoot -29.4307 -12.295
ltoes -1.66379
248
root -18.268 17.3578 2.76558 5.39774 43.0309 -0.691881
lowerback 22.9187 -2.52761 -8.97824
upperback 4.70014 -5.46485 -3.01774
thorax -7.01279 -2.40101 3.30539
lowerneck 1.4957 2.67082 2.449
upperneck -20.8374 4.63674 2.64361
head -6.5955 1.97143 0.141534
rclavicle -8.66701e-014 -1.90833e-014
rhumerus -52.8133 12.5616 -91.1125
rradius 45.4097
rwrist -4.61996
rhand -10.5509 -15.4055
rfingers 7.12502
rthumb 15.4531 -44.8078
lclavicle -8.66701e-014 -1.90833e-014
lhumerus -18.6095 -15.6743 67.13
lradius 61.8657
lwrist 5.75982
lhand -8.4854 10.5025
lfingers 7.12502
lthumb 17.4417 39.74
rfemur -31.3071 13.2259 16.6032
rtibia 48.211
rfoot -18.0871 14.5008
rtoes -15.0338
lfemur -14.3851 -2.3278 -14.0899
ltibia 35.3973
lfoot -29.1505 -12.1353
ltoes -1.83085
249
root -18.1983 17.3936 2.86032 5.60723 43.1067 -0.594896
lowerback 22.928 -2.6199 -8.90216
upperback 4.59529 -5.57467 -2.94593
thorax -7.12203 -2.44784 3.37491
lowerneck 1.46888 2.9152 2.59159
upperneck -20.9336 4.94555 2.38835
head -6.61293 2.12996 0.0173027
rclavicle -4.77083e-015 3.18055e-014
rhumerus -52.9794 12.5545 -91.048
rradius 45.4055
rwrist -4.69877
rhand -10.2822 -15.2989
rfingers 7.12502
rthumb 15.7119 -44.6811
lclavicle -4.77083e-015 3.18055e-014
lhumerus -18.4057 -15.9064 66.922
lradius 62.8929
lwrist 6.196
lhand -8.33314 10.3788
lfingers 7.12502
lthumb 17.5883 39.6032
rfemur -31.5832 13.3297 16.2395
rtibia 46.1389
rfoot -18.0923 14.1518
rtoes -15.1103
lfemur -13.5863 -2.60348 -14.1524
ltibia 34.3164
lfoot -28.8332 -11.9578
ltoes -2.04803
250
root -18.1281 17.4287 2.95619 5.81788 43.2095 -0.489279
lowerback 22.9541 -2.72058 -8.8004
upperback 4.49192 -5.69031 -2.86947
thorax -7.23979 -2.4974 3.43812
lowerneck 1.45434 3.15319 2.75546
upperneck -21.0696 5.24265 2.09623
head -6.64238 2.28321 -0.122133
rclavicle 5.1684e-014 -2.70347e-014
rhumerus -53.1342 12.5463 -90.9728
rradius 45.3906
rwrist -4.78964
rhand -9.96977 -15.1948
rfingers 7.12502
rthumb 16.0128 -44.553
lclavicle 5.1684e-014 -2.70347e-014
lhumerus -18.2515 -16.1312 66.7274
lradius 63.9074
lwrist 6.5851
lhand -8.18657 10.2589
lfingers 7.12502
lthumb 17.7293 39.4706
rfemur -31.8186 13.3568 15.8967
rtibia 44.1227
rfoot -18.0571 13.6339
rtoes -15.2084
lfemur -12.7828 -2.89793 -14.2226
ltibia 33.2274
lfoot -28.4867 -11.7789
ltoes -2.31328
251
root -18.0578 17.4627 3.05345 6.02133 43.3356 -0.38
lowerback 22.9989 -2.82945 -8.67911
upperback 4.3917 -5.81271 -2.78708
thorax -7.36454 -2.55014 3.50025
lowerneck 1.33582 3.37199 3.09739
upperneck -21.0117 5.4668 1.57955
head -6.57838 2.409 -0.353118
rclavicle 5.725e-014 9.54166e-015
rhumerus -53.2778 12.5489 -90.8942
rradius 45.3639
rwrist -4.88062
rhand -9.6295 -15.1053
rfingers 7.12502
rthumb 16.3404 -44.4369
lclavicle 5.725e-014 9.54166e-015
lhumerus -18.157 -16.3316 66.5487
lradius 64.9071
lwrist 6.92507
lhand -8.09757 10.1302
lfingers 7.12502
lthumb 17.815 39.3341
rfemur -32.0109 13.316 15.5883
rtibia 42.189
rfoot -17.9919 12.9442
rtoes -15.328
lfemur -11.9683 -3.18427 -14.2917
ltibia 32.129
lfoot -28.1087 -11.6218
ltoes -2.62744
252
root -17.9882 17.4955 3.15111 6.26043 43.5198 -0.253392
lowerback 23.0375 -2.96387 -8.52505
upperback 4.28816 -5.95954 -2.70305
thorax -7.49044 -2.61517 3.55256
lowerneck 1.2509 3.60048 3.38827
upperneck -21.0464 5.71661 1.11237
head -6.55044 2.54551 -0.562485
rclavicle -3.02153e-014 3.18055e-015
rhumerus -53.4011 12.5496 -90.8108
rradius 45.3172
rwrist -4.96002
rhand -9.26566 -15.0312
rfingers 7.12502
rthumb 16.6907 -44.3337
lclavicle -3.02153e-014 3.18055e-015
lhumerus -18.1185 -16.5066 66.3839
lradius 65.8881
lwrist 7.21401
lhand -8.05346 9.99666
lfingers 7.12502
lthumb 17.8574 39.1968
rfemur -32.2032 13.1842 15.2918
rtibia 40.3632
rfoot -17.8992 12.0878
rtoes -15.4575
lfemur -11.2023 -3.50062 -14.3682
ltibia 31.0327
lfoot -27.682 -11.4843
ltoes -2.9713
253
root -17.9184 17.526 3.25215 6.42673 43.6613 -0.134394
lowerback 23.1238 -3.07104 -8.39054
upperback 4.20699 -6.07708 -2.61474
thorax -7.61716 -2.66577 3.61554
lowerneck 1.14943 3.83104 3.69454
upperneck -21.0734 5.96256 0.612791
head -6.51334 2.68175 -0.783087
rclavicle -2.14687e-014 2.70347e-014
rhumerus -53.5 12.5471 -90.7212
rradius 45.2505
rwrist -5.01918
rhand -8.88508 -14.9798
rfingers 7.12502
rthumb 17.0571 -44.251
lclavicle -2.14687e-014 2.70347e-014
lhumerus -18.1327 -16.6524 66.2364
lradius 66.8397
lwrist 7.464
lhand -8.06292 9.84695
lfingers 7.12502
lthumb 17.8483 39.0479
rfemur -32.2986 13.0766 15.0602
rtibia 38.6678
rfoot -17.7995 11.0958
rtoes -15.5589
lfemur -10.3455 -3.68961 -14.4266
ltibia 29.9454
lfoot -27.2593 -11.4378
ltoes -3.31492
254
root -17.8501 17.5545 3.35443 6.61243 43.8347 -0.00671793
lowerback 23.2046 -3.18916 -8.24411
upperback 4.12466 -6.20446 -2.52147
thorax -7.74208 -2.72142 3.6801
lowerneck 1.05676 4.06795 3.9967
upperneck -21.1351 6.21773 0.107611
head -6.48631 2.82261 -1.00531
rclavicle 2.22639e-014 1.43125e-014
rhumerus -53.5809 12.5414 -90.6276
rradius 45.1675
rwrist -5.05373
rhand -8.50196 -14.9519
rfingers 7.12502
rthumb 17.4258 -44.1908
lclavicle 2.22639e-014 1.43125e-014
lhumerus -18.2066 -16.7674 66.111
lradius 67.7619
lwrist 7.68293
lhand -8.12061 9.68233
lfingers 7.12502
lthumb 17.7928 38.8883
rfemur -32.3968 12.9396 14.8464
rtibia 37.1205
rfoot -17.6883 10.0031
rtoes -15.6073
lfemur -9.53075 -3.85136 -14.4756
ltibia 28.8831
lfoot -26.8098 -11.4536
ltoes -3.63852
255
root -17.7831 17.58 3.45806 6.82291 44.0329 0.142215
lowerback 23.2759 -3.31405 -8.10026
upperback 4.04378 -6.33908 -2.42364
thorax -7.8589 -2.78092 3.75268
lowerneck 1.00549 4.30709 4.25505
upperneck -21.2847 6.48408 -0.369578
head -6.49435 2.96841 -1.21445
rclavicle -2.3059e-014 4.6118e-014
rhumerus -53.6449 12.5382 -90.528
rradius 45.0755
rwrist -5.06907
rhand -8.1312 -14.9502
rfingers 7.12502
rthumb 17.7826 -44.1571
lclavicle -2.3059e-014 4.6118e-014
lhumerus -18.3418 -16.8451 66.0132
lradius 68.6515
lwrist 7.88065
lhand -8.2206 9.50268
lfingers 7.12502
lthumb 17.6966 38.7174
rfemur -32.4977 12.7995 14.6326
rtibia 35.7327
rfoot -17.5735 8.86229
rtoes -15.5687
lfemur -8.75536 -3.98394 -14.5251
ltibia 27.8543
lfoot -26.3432 -11.5275
ltoes -3.93547
256
root -17.7174 17.6024 3.56305 7.06325 44.2518 0.320635
lowerback 23.3278 -3.44283 -7.95836
upperback 3.96738 -6.47638 -2.32713
thorax -7.96026 -2.84262 3.82427
lowerneck 1.01467 4.54493 4.44784
upperneck -21.5463 6.76238 -0.791781
head -6.55065 3.11878 -1.4004
rclavicle -9.70069e-014 7.15625e-014
rhumerus -53.6899 12.5216 -90.4223
rradius 44.9737
rwrist -5.05915
rhand -7.78442 -14.9653
rfingers 7.12502
rthumb 18.1163 -44.1417
lclavicle -9.70069e-014 7.15625e-014
lhumerus -18.5233 -16.9001 65.9388
lradius 69.4959
lwrist 8.0811
lhand -8.35796 9.31296
lfingers 7.12502
lthumb 17.5644 38.5395
rfemur -32.6037 12.6743 14.4054
rtibia 34.5087
rfoot -17.4579 7.73178
rtoes -15.4428
lfemur -8.03056 -4.09191 -14.5808
ltibia 26.887
lfoot -25.8781 -11.6555
ltoes -4.17716
257
root -17.6532 17.6211 3.66971 7.32533 44.4849 0.527448
lowerback 23.3702 -3.56917 -7.83321
upperback 3.89361 -6.61244 -2.22539
thorax -8.05132 -2.90386 3.90994
lowerneck 1.07257 4.77787 4.58388
upperneck -21.8956 7.04296 -1.17649
head -6.64533 3.27032 -1.56956
rclavicle -7.71285e-014 -1.59028e-014
rhumerus -53.7291 12.5055 -90.3088
rradius 44.8737
rwrist -5.03571
rhand -7.47291 -14.9944
rfingers 7.12502
rthumb 18.4159 -44.1426
lclavicle -7.71285e-014 -1.59028e-014
lhumerus -18.7592 -16.9288 65.8982
lradius 70.2911
lwrist 8.28604
lhand -8.48963 9.11734
lfingers 7.12502
lthumb 17.4377 38.3552
rfemur -32.7064 12.5817 14.1628
rtibia 33.449
rfoot -17.3365 6.67256
rtoes -15.2206
lfemur -7.35472 -4.17122 -14.6421
ltibia 26.003
lfoot -25.4438 -11.8262
ltoes -4.39002
